Coordinates
version=1
nRows=7
nColumns=40
inDegrees=yes
endheader
time	pelvis_tilt	pelvis_list	pelvis_rotation	pelvis_tx	pelvis_ty	pelvis_tz	hip_flexion_r	hip_adduction_r	hip_rotation_r	knee_angle_r	knee_angle_r_beta	ankle_angle_r	subtalar_angle_r	mtp_angle_r	hip_flexion_l	hip_adduction_l	hip_rotation_l	knee_angle_l	knee_angle_l_beta	ankle_angle_l	subtalar_angle_l	mtp_angle_l	lumbar_extension	lumbar_bending	lumbar_rotation	arm_flex_r	arm_add_r	arm_rot_r	elbow_flex_r	pro_sup_r	wrist_flex_r	wrist_dev_r	arm_flex_l	arm_add_l	arm_rot_l	elbow_flex_l	pro_sup_l	wrist_flex_l	wrist_dev_l
1760624555.23768497	      6.08157509	     -1.42230725	      0.09416101	      0.17029283	      0.88121809	      0.00105695	     80.00000000	     -7.00000000	      0.00000000	     80.00000000	      1.39626340	      0.00000000	      0.00000000	      0.00000000	     80.00000000	     -7.00000000	      0.00000000	     80.00000000	      1.39626340	      0.00000000	      0.00000000	      0.00000000	    -13.05623236	      0.03086769	      0.45514016	      4.16166393	     -6.58383882	      8.86866369	      0.00000000	      0.00000000	    -16.22833589	    -13.50897578	      3.17250022	     -6.09988797	     12.40527822	      0.00000000	      6.76274151	     -4.88062985	    -10.33305208
1760624555.24768496	      6.08167391	     -1.42246905	      0.09370141	      0.17028608	      0.88121634	      0.00100762	     80.00000000	     -7.00000000	      0.00000000	     80.00000000	      1.39626340	      0.00000000	      0.00000000	      0.00000000	     80.00000000	     -7.00000000	      0.00000000	     80.00000000	      1.39626340	      0.00000000	      0.00000000	      0.00000000	    -13.05617569	      0.03099401	      0.45502517	      4.16147838	     -6.58332578	      8.86862374	      0.00000000	      0.00000000	    -16.22830055	    -13.50892593	      3.17255891	     -6.10040607	     12.40538813	      0.00000000	      6.76274197	     -4.88064118	    -10.33308638
1760624555.25768495	      6.08199713	     -1.42254884	      0.09341070	      0.17026258	      0.88120495	      0.00098494	     80.00000000	     -7.00000000	      0.00000000	     80.00000000	      1.39626340	      0.00000000	      0.00000000	      0.00000000	     80.00000000	     -7.00000000	      0.00000000	     80.00000000	      1.39626340	      0.00000000	      0.00000000	      0.00000000	    -13.05604002	      0.03107607	      0.45492113	      4.16119914	     -6.58268620	      8.86857730	      0.00000000	      0.00000000	    -16.22826362	    -13.50887213	      3.17240830	     -6.10037353	     12.40547759	      0.00000000	      6.76273286	     -4.88065664	    -10.33312505
1760624555.26768494	      6.08229378	     -1.42268963	      0.09249607	      0.17027204	      0.88121538	      0.00095115	     80.00000000	     -7.00000000	      0.00000000	     80.00000000	      1.39626340	      0.00000000	      0.00000000	      0.00000000	     80.00000000	     -7.00000000	      0.00000000	     80.00000000	      1.39626340	      0.00000000	      0.00000000	      0.00000000	    -13.05566006	      0.03128434	      0.45428081	      4.16075571	     -6.58201430	      8.86852797	      0.00000000	      0.00000000	    -16.22822526	    -13.50881169	      3.17326628	     -6.10059884	     12.40566037	      0.00000000	      6.76278089	     -4.88060908	    -10.33318380
1760624555.27768493	      6.08231646	     -1.42130157	      0.09161182	      0.17023374	      0.88124946	      0.00091012	     80.00000000	     -7.00000000	      0.00000000	     80.00000000	      1.39626340	      0.00000000	      0.00000000	      0.00000000	     80.00000000	     -7.00000000	      0.00000000	     80.00000000	      1.39626340	      0.00000000	      0.00000000	      0.00000000	    -13.05560164	      0.03303764	      0.45415840	      4.15981937	     -6.58057561	      8.86842975	      0.00000000	      0.00000000	    -16.22813136	    -13.50867488	      3.17269215	     -6.10123103	     12.40594022	      0.00000000	      6.76283574	     -4.88060793	    -10.33332160
1760624555.28768492	      6.08238253	     -1.42083664	      0.09104679	      0.17023698	      0.88125221	      0.00086696	     80.00000000	     -7.00000000	      0.00000000	     80.00000000	      1.39626340	      0.00000000	      0.00000000	      0.00000000	     80.00000000	     -7.00000000	      0.00000000	     80.00000000	      1.39626340	      0.00000000	      0.00000000	      0.00000000	    -13.05552022	      0.03379815	      0.45410061	      4.15957201	     -6.57989210	      8.86839410	      0.00000000	      0.00000000	    -16.22808492	    -13.50861374	      3.17269638	     -6.10192786	     12.40610079	      0.00000000	      6.76287912	     -4.88060431	    -10.33339633
1760624555.29768491	      6.08265392	     -1.42014478	      0.09038856	      0.17023294	      0.88125431	      0.00082579	     80.00000000	     -7.00000000	      0.00000000	     80.00000000	      1.39626340	      0.00000000	      0.00000000	      0.00000000	     80.00000000	     -7.00000000	      0.00000000	     80.00000000	      1.39626340	      0.00000000	      0.00000000	      0.00000000	    -13.05527131	      0.03479770	      0.45401108	      4.15928381	     -6.57931896	      8.86836162	      0.00000000	      0.00000000	    -16.22804137	    -13.50855655	      3.17277574	     -6.10287054	     12.40627677	      0.00000000	      6.76293175	     -4.88060154	    -10.33348152
